<?xml version="1.0" encoding="utf-8"?>
<!-- Generator: Adobe Illustrator 23.0.2, SVG Export Plug-In . SVG Version: 6.00 Build 0)  -->
<svg version="1.1" id="Layer_1" xmlns="http://www.w3.org/2000/svg" xmlns:xlink="http://www.w3.org/1999/xlink" x="0px" y="0px"
	 viewBox="0 0 680.8 147.6" style="enable-background:new 0 0 680.8 147.6;" xml:space="preserve">
<style type="text/css">
	.st0{fill:#FFFFFF;}
	.st1{clip-path:url(#SVGID_2_);fill:#EEB71D;}
	.st2{clip-path:url(#SVGID_2_);fill:#611F60;}
	.st3{clip-path:url(#SVGID_2_);fill:#EF385C;}
	.st4{clip-path:url(#SVGID_2_);fill:#00A694;}
</style>
<g>
	<path class="st0" d="M87.5,38.2c-8.8-3-16-4.5-21.6-4.5c-3.5,0-6.3,0.7-8.3,2.1c-2,1.4-3,3.4-3,6c0,3.7,2,6.5,5.9,8.5
		c3.9,2,10.1,4.2,18.7,6.6c9.7,2.8,17.7,5.5,24,8.3c6.3,2.8,11.8,7.1,16.4,12.9c4.6,5.8,7,13.4,7,22.8c0,9.6-2.5,17.6-7.6,24.3
		c-5,6.6-11.9,11.6-20.4,14.8c-8.6,3.3-18.2,4.9-28.8,4.9c-11.8,0-23.6-2-35.5-6c-11.9-4-22.1-9.5-30.7-16.4l15.3-31
		c6.9,6,15.4,11.1,25.4,15.2c10,4.1,18.6,6.2,25.8,6.2c4.5,0,7.9-0.9,10.4-2.6c2.5-1.7,3.7-4.1,3.7-7.3c0-3.8-2-6.7-6.1-8.7
		c-4.1-2-10.3-4.2-18.9-6.4c-9.6-2.5-17.5-5.1-23.8-7.8c-6.3-2.7-11.7-6.8-16.3-12.5c-4.6-5.6-6.9-13-6.9-22.2
		c0-8.9,2.4-16.7,7.1-23.3C24,15.6,30.7,10.5,39.3,7c8.6-3.5,18.6-5.3,30-5.3c10.3,0,20.6,1.5,30.8,4.4c10.2,2.9,19.1,6.8,26.7,11.7
		l-15.1,31.4C104.3,44.9,96.3,41.2,87.5,38.2z"/>
	<path class="st0" d="M141.3,4.8h40.9v137.7h-40.9V4.8z"/>
	<path class="st0" d="M205.4,4.8h43.8l36.9,76.4l36.7-76.4h43.8v137.7h-35.9V60.8L299.3,129h-26.5l-31.4-68.2v81.7h-35.9V4.8z"/>
	<g>
		<defs>
			<path id="SVGID_1_" d="M495.4,11.5c11.5,6.2,20.4,14.6,26.9,25.4c6.5,10.8,9.7,23,9.7,36.4c0,13.6-3.2,25.9-9.7,36.8
				c-6.5,10.9-15.5,19.5-26.9,25.7c-11.5,6.2-24.3,9.3-38.4,9.3c-14.3,0-27.1-3.1-38.5-9.3c-11.4-6.2-20.3-14.8-26.8-25.7
				C385.2,99.3,382,87,382,73.4c0-13.5,3.2-25.6,9.7-36.4c6.5-10.8,15.4-19.3,26.8-25.4c11.4-6.2,24.2-9.2,38.5-9.2
				C471.1,2.3,483.9,5.3,495.4,11.5z M440.8,41.2c-5.2,3.3-9.3,7.8-12.4,13.5c-3.1,5.7-4.6,12-4.6,19c0,6.9,1.5,13.3,4.6,19.1
				c3.1,5.8,7.2,10.3,12.4,13.7c5.2,3.3,10.8,5,16.8,5c5.9,0,11.4-1.7,16.4-5c5-3.3,9-7.9,11.9-13.6c2.9-5.7,4.3-12.1,4.3-19.2
				c0-6.9-1.4-13.3-4.3-19c-2.9-5.7-6.8-10.2-11.8-13.5c-5-3.3-10.5-4.9-16.5-4.9C451.6,36.3,446,37.9,440.8,41.2z"/>
		</defs>
		<clipPath id="SVGID_2_">
			<use xlink:href="#SVGID_1_"  style="overflow:visible;"/>
		</clipPath>
		<rect x="456.7" y="72.8" class="st1" width="88.4" height="88.4"/>
		<rect x="456.7" y="-15.6" class="st2" width="88.4" height="88.4"/>
		<rect x="368.3" y="72.8" class="st3" width="88.4" height="88.4"/>
		<rect x="368.3" y="-15.6" class="st4" width="88.4" height="88.4"/>
	</g>
	<path class="st0" d="M640.7,4.8H678v137.7h-34.8l-58.3-76.6v76.6h-37.5V4.8h35l58.3,76.8V4.8z"/>
</g>
</svg>
